<svg width="43" height="43" viewBox="0 0 43 43" fill="none" xmlns="http://www.w3.org/2000/svg">
<path fill-rule="evenodd" clip-rule="evenodd" d="M1.79163 5.08474C1.79163 4.21136 2.13858 3.37375 2.75615 2.75618C3.37372 2.13861 4.21133 1.79166 5.08471 1.79166H37.9116C38.3444 1.79095 38.7731 1.87562 39.1732 2.04082C39.5733 2.20602 39.9368 2.4485 40.243 2.75439C40.5492 3.06027 40.7921 3.42355 40.9577 3.82343C41.1234 4.2233 41.2085 4.65192 41.2083 5.08474V37.9116C41.2088 38.3445 41.1239 38.7733 40.9585 39.1734C40.7931 39.5734 40.5504 39.937 40.2444 40.2432C39.9384 40.5493 39.575 40.7922 39.175 40.9578C38.775 41.1234 38.3463 41.2085 37.9134 41.2083H5.08471C4.6521 41.2083 4.22374 41.1231 3.82409 40.9575C3.42443 40.7919 3.06133 40.5491 2.75551 40.2432C2.4497 39.9372 2.20717 39.5739 2.04178 39.1742C1.8764 38.7744 1.79139 38.346 1.79163 37.9134V5.08474ZM17.3935 16.8202H22.7308V19.5005C23.5012 17.9597 25.4721 16.5729 28.4337 16.5729C34.1115 16.5729 35.457 19.642 35.457 25.2732V35.7043H29.7112V26.5561C29.7112 23.349 28.9407 21.5394 26.9842 21.5394C24.2699 21.5394 23.1411 23.4905 23.1411 26.5561V35.7043H17.3935V16.8202ZM7.53929 35.4589H13.287V16.5729H7.53929V35.4571V35.4589ZM14.1093 10.4132C14.1202 10.9053 14.0326 11.3946 13.8518 11.8524C13.6709 12.3102 13.4005 12.7273 13.0562 13.0792C12.712 13.4311 12.301 13.7107 11.8473 13.9015C11.3935 14.0924 10.9063 14.1907 10.414 14.1907C9.92178 14.1907 9.4345 14.0924 8.98077 13.9015C8.52704 13.7107 8.11601 13.4311 7.77179 13.0792C7.42758 12.7273 7.15712 12.3102 6.97628 11.8524C6.79544 11.3946 6.70787 10.9053 6.71871 10.4132C6.73998 9.44719 7.13865 8.52795 7.82934 7.8523C8.52002 7.17666 9.44782 6.79832 10.414 6.79832C11.3802 6.79832 12.308 7.17666 12.9987 7.8523C13.6894 8.52795 14.0881 9.44719 14.1093 10.4132Z" fill="#A18BD6"/>
</svg>
