<svg width="75" height="75" viewBox="0 0 75 75" fill="none" xmlns="http://www.w3.org/2000/svg">
<g clip-path="url(#clip0)">
<path d="M29.7733 33.276V21.7543H38.0865C42.6307 21.7543 45.2881 23.8886 45.2881 27.5315C45.2881 31.2771 42.4673 33.276 37.0497 33.276H29.7733ZM29.7733 50.8458H38.6376C44.1673 50.8458 47.0909 48.604 47.0909 44.4147C47.0909 40.2815 44.0552 38.1191 38.2827 38.1191H29.7733V50.8458Z" fill="white"/>
<path d="M18.6918 0C13.7372 0 8.9855 1.9682 5.48207 5.47163C1.97864 8.97506 0.010437 13.7267 0.010437 18.6813V56.044C0.010437 60.9986 1.97864 65.7502 5.48207 69.2536C8.9855 72.7571 13.7372 74.7253 18.6918 74.7253H56.0544C61.009 74.7253 65.7607 72.7571 69.2641 69.2536C72.7675 65.7502 74.7357 60.9986 74.7357 56.044V18.6813C74.7357 13.7267 72.7675 8.97506 69.2641 5.47163C65.7607 1.9682 61.009 0 56.0544 0L18.6918 0ZM23.6423 56.044V16.5563H39.5168C46.9286 16.5563 51.3934 20.3346 51.3934 26.4107C51.3934 30.5393 48.3577 34.2335 44.4673 34.892V35.3591C49.8055 35.9055 53.3596 39.7071 53.3596 44.8538C53.3596 51.8033 48.297 56.044 39.8717 56.044H23.6423Z" fill="white"/>
</g>
<defs>
<clipPath id="clip0">
<rect width="74.7253" height="74.7253" fill="white"/>
</clipPath>
</defs>
</svg>
