<svg width="76" height="75" viewBox="0 0 76 75" fill="none" xmlns="http://www.w3.org/2000/svg">
<path d="M38.0549 22.4176C52.6263 22.4176 64.2088 19.055 64.2088 14.9451C64.2088 10.8352 52.6263 7.47253 38.0549 7.47253C23.4835 7.47253 11.9011 10.8352 11.9011 14.9451C11.9011 19.055 23.4835 22.4176 38.0549 22.4176ZM38.0549 56.044C23.4835 56.044 11.9011 52.6813 11.9011 48.5714V59.7802C11.9011 63.8901 23.4835 67.2528 38.0549 67.2528C52.6263 67.2528 64.2088 63.8901 64.2088 59.7802V48.5714C64.2088 52.6813 52.6263 56.044 38.0549 56.044ZM38.0549 41.0989C23.4835 41.0989 11.9011 37.7363 11.9011 33.6264V44.8352C11.9011 48.9451 23.4835 52.3077 38.0549 52.3077C52.6263 52.3077 64.2088 48.9451 64.2088 44.8352V33.6264C64.2088 37.7363 52.6263 41.0989 38.0549 41.0989ZM38.0549 26.1539C23.4835 26.1539 11.9011 22.7912 11.9011 18.6813V29.8901C11.9011 34 23.4835 37.3626 38.0549 37.3626C52.6263 37.3626 64.2088 34 64.2088 29.8901V18.6813C64.2088 22.7912 52.6263 26.1539 38.0549 26.1539Z" fill="white"/>
</svg>
