<svg width="75" height="75" viewBox="0 0 75 75" fill="none" xmlns="http://www.w3.org/2000/svg">
<g clip-path="url(#clip0)">
<path d="M38.1879 7.40711C31.6857 7.25758 25.3207 9.29061 20.1091 13.1817C14.8974 17.0728 11.1394 22.5976 9.43505 28.8743C9.59384 28.8136 9.26458 28.9116 9.43505 28.8743C-2.63075 36.8162 -2.77553 54.1221 8.66912 62.942L8.68079 62.9186L8.65744 63.0167C12.3156 65.7729 16.7758 67.255 21.3561 67.2364H37.4594L37.5574 67.3204H53.7215C74.5441 67.4909 82.911 40.5384 65.6658 28.8743C64.1853 23.3951 61.133 18.4692 56.8856 14.7045L56.7525 14.8376L56.7642 14.6788C51.6235 10.1427 45.0466 7.56667 38.1926 7.40478L38.1879 7.40711ZM37.0694 20.3229C40.9364 20.1898 44.9132 21.4671 47.9186 23.898C49.7745 25.4453 51.2593 27.3897 52.2633 29.5876C53.2672 31.7855 53.7648 34.1808 53.7191 36.5967V38.2149C64.7131 37.9954 64.7131 54.5984 53.7191 54.3789H37.5551L37.5318 54.4023V54.2809H21.3561C20.2118 54.2809 19.0816 54.038 18.0355 53.564C12.8911 51.2405 11.6628 44.4778 15.6513 40.4777C19.6537 36.4892 26.4024 37.7175 28.7375 42.8619L38.1155 33.4839C34.9985 29.421 30.5054 26.6359 25.48 25.6517C25.5407 25.6284 25.6014 25.5794 25.6504 25.591C27.1053 23.9911 28.8673 22.7004 30.8315 21.7957C32.7957 20.891 34.9219 20.391 37.0834 20.3252L37.0694 20.3229Z" fill="white"/>
</g>
<defs>
<clipPath id="clip0">
<rect width="74.7253" height="74.7253" fill="white" transform="translate(0.230713)"/>
</clipPath>
</defs>
</svg>
