<svg width="75" height="75" viewBox="0 0 75 75" fill="none" xmlns="http://www.w3.org/2000/svg">
<g clip-path="url(#clip0)">
<path d="M4.53894 0L10.5356 67.2527L37.4461 74.7253L64.4266 67.2434L70.4326 0H4.54361H4.53894ZM59.2845 62.9654L37.5955 68.9761V69.0088L37.5395 68.9901L37.4834 69.0088V68.9761L15.7944 62.9654L10.6664 5.50165H64.4126L59.2845 62.9654ZM47.6087 38.689L46.656 49.3841L37.4461 51.8687L28.2595 49.3934L27.6711 42.8082H19.3906L20.5442 55.7637L37.4788 60.4481L54.362 55.7637L56.6271 30.4412H26.5642L25.8123 21.9926H57.3744L58.1123 13.7448H16.7939L19.0216 38.689H47.6087Z" fill="white"/>
</g>
<defs>
<clipPath id="clip0">
<rect width="74.7253" height="74.7253" fill="white" transform="translate(0.12088)"/>
</clipPath>
</defs>
</svg>
