<svg width="76" height="75" viewBox="0 0 76 75" fill="none" xmlns="http://www.w3.org/2000/svg">
<g clip-path="url(#clip0)">
<path d="M0.857117 0H75.5824V74.7253H0.857117V0ZM69.4611 56.9033C68.9163 53.494 66.6963 50.6295 60.1111 47.9581C57.8196 46.8839 55.2727 46.1366 54.5161 44.4086C54.2328 43.3811 54.1892 42.8207 54.3729 42.2136C54.8399 40.2022 57.2218 39.5982 59.0899 40.1586C60.3042 40.5322 61.4251 41.4663 62.1287 42.9608C65.3481 40.856 65.3481 40.856 67.593 39.4581C66.7523 38.1504 66.3351 37.5868 65.7685 37.0295C63.8069 34.8344 61.1947 33.7136 56.9447 33.8101L54.7496 34.0872C52.6448 34.6009 50.6397 35.7218 49.4254 37.2163C45.876 41.2359 46.9003 48.2414 51.197 51.137C55.447 54.3128 61.6617 55.0103 62.4557 58.0024C63.2029 61.6452 59.7469 62.8128 56.3344 62.3925C53.8093 61.8321 52.4113 60.5679 50.8701 58.2328L45.1723 61.5051C45.8262 62.9996 46.5734 63.6504 47.6943 64.9581C53.1119 70.4255 66.6558 70.1452 69.0875 61.832C69.1778 61.5518 69.8348 59.637 69.3179 56.6947L69.4611 56.9033ZM41.4921 34.3456H34.4928C34.4928 40.3797 34.4648 46.3764 34.4648 52.4198C34.4648 56.2557 34.661 59.7771 34.0351 60.8606C33.0077 63.0059 30.3611 62.7319 29.1593 62.3551C27.9263 61.7449 27.3005 60.9042 26.5751 59.693C26.3789 59.3661 26.2326 59.0828 26.1796 59.0828L20.4974 62.5855C21.447 64.5471 22.8326 66.2346 24.6198 67.3088C27.2818 68.8967 30.8593 69.4104 34.6049 68.5698C37.0428 67.8661 39.1445 66.4183 40.2436 64.1766C41.8315 61.2809 41.4952 57.7315 41.4796 53.7586C41.517 47.3634 41.4796 40.965 41.4796 34.52L41.4921 34.3456Z" fill="white"/>
</g>
<defs>
<clipPath id="clip0">
<rect width="74.7253" height="74.7253" fill="white" transform="translate(0.857117)"/>
</clipPath>
</defs>
</svg>
