<svg width="76" height="75" viewBox="0 0 76 75" fill="none" xmlns="http://www.w3.org/2000/svg">
<g clip-path="url(#clip0)">
<path d="M37.9779 2.49078L39.8162 0.806969C39.5828 0.551731 39.2988 0.347891 38.9823 0.208431C38.6658 0.0689715 38.3238 -0.00305176 37.9779 -0.00305176C37.6321 -0.00305176 37.29 0.0689715 36.9735 0.208431C36.657 0.347891 36.3731 0.551731 36.1397 0.806969L37.9779 2.49078ZM37.9779 67.2527L36.0201 68.792C36.2532 69.0884 36.5505 69.3279 36.8897 69.4927C37.2288 69.6574 37.6009 69.743 37.9779 69.743C38.355 69.743 38.7271 69.6574 39.0662 69.4927C39.4053 69.3279 39.7026 69.0884 39.9357 68.792L37.9779 67.2527ZM23.6456 49.0098L21.6878 50.5541L23.6456 49.0098ZM24.8711 16.7932L23.0329 15.1044L24.8711 16.7832V16.7932ZM51.0847 16.7932L52.923 15.1094L51.0847 16.7882V16.7932ZM52.3102 49.0098L54.268 50.5541L52.3102 49.0098ZM40.4688 74.7252V2.49078H35.4871V74.7252H40.4688ZM39.9357 65.7133L25.6034 47.4754L21.6878 50.5541L36.0201 68.797L39.9357 65.7183V65.7133ZM26.7044 18.472L39.8212 4.17459L36.1347 0.806969L23.0329 15.1044L26.6994 18.472H26.7044ZM36.1397 4.17459L49.2515 18.472L52.923 15.1094L39.8162 0.81195L36.1347 4.16961L36.1397 4.17459ZM50.3524 47.4704L36.0201 65.7133L39.9357 68.792L54.268 50.5491L50.3524 47.4704ZM49.2515 18.477C52.841 22.3957 54.9218 27.4621 55.1225 32.7725C55.3232 38.0829 53.6309 43.292 50.3475 47.4704L54.268 50.5491C58.2813 45.4412 60.3493 39.0735 60.1029 32.5823C59.8565 26.091 57.3119 19.8984 52.923 15.1094L49.2515 18.472V18.477ZM25.6034 47.4704C22.3206 43.2914 20.6292 38.082 20.8308 32.7716C21.0325 27.4612 23.1141 22.3951 26.7044 18.477L23.0329 15.1044C18.644 19.8934 16.0993 26.086 15.8529 32.5773C15.6066 39.0686 17.6745 45.4362 21.6878 50.5441L25.6034 47.4654V47.4704Z" fill="white"/>
</g>
<defs>
<clipPath id="clip0">
<rect width="74.7253" height="74.7253" fill="white" transform="translate(0.615387)"/>
</clipPath>
</defs>
</svg>
