<svg width="75" height="75" viewBox="0 0 75 75" fill="none" xmlns="http://www.w3.org/2000/svg">
<g clip-path="url(#clip0)">
<path d="M0.27478 37.3626V74.7253H75.0001V0H0.27478V37.3626ZM60.4893 34.383C62.2807 34.8048 63.9088 35.7434 65.1713 37.0824C65.8532 37.811 66.8737 39.149 66.9601 39.4783C66.9834 39.5764 63.7376 41.7527 61.7667 42.9694C61.6943 43.0184 61.4024 42.7148 61.0848 42.2385C60.1251 40.8397 59.1139 40.2326 57.5704 40.1228C55.3076 39.9757 53.8481 41.1573 53.8598 43.1398C53.8479 43.625 53.9562 44.1055 54.1751 44.5386C54.6748 45.5731 55.6112 46.1919 58.5045 47.4459C63.8566 49.7437 66.1428 51.2639 67.5649 53.4169C69.1575 55.8244 69.5101 59.6681 68.4406 62.538C67.2496 65.6391 64.305 67.7548 60.1694 68.4483C58.8921 68.6795 55.8517 68.6422 54.4763 68.3876C51.4733 67.8529 48.6267 66.3677 46.8753 64.4225C46.1818 63.6683 44.8437 61.6857 44.9301 61.5526C44.9675 61.5036 45.2711 61.3097 45.612 61.1136L48.3862 59.507L50.5392 58.2554L50.9899 58.9232C51.6227 59.883 52.9958 61.1977 53.8248 61.6343C56.209 62.9 59.4805 62.7179 61.0988 61.2701C61.755 60.7236 62.1216 59.883 62.0726 59.033C62.0726 58.169 61.9628 57.7813 61.5121 57.1345C60.9284 56.3078 59.7491 55.6026 56.3794 54.1431C52.5241 52.4758 50.8568 51.4554 49.3506 49.8137C48.4024 48.7332 47.7012 47.459 47.2957 46.0798C47.0154 45.022 46.9431 42.3692 47.1626 41.3114C47.9542 37.5775 50.7751 34.9878 54.8242 34.2218C56.1389 33.9673 59.2027 34.063 60.4917 34.3806L60.4893 34.383ZM42.9523 37.5098L42.9756 40.5618H33.245V68.2078H26.3609V40.5618H16.6443V37.5705C16.6443 35.9032 16.6816 34.5184 16.7284 34.481C16.7657 34.432 22.676 34.4087 29.852 34.4203L42.9149 34.4577L42.9523 37.5098Z" fill="white"/>
</g>
<defs>
<clipPath id="clip0">
<rect width="74.7253" height="74.7253" fill="white" transform="translate(0.27478)"/>
</clipPath>
</defs>
</svg>
