<svg width="75" height="75" viewBox="0 0 75 75" fill="none" xmlns="http://www.w3.org/2000/svg">
<path d="M35.0544 6.89023C35.8332 6.45473 36.7106 6.22607 37.6029 6.22607C38.4951 6.22607 39.3725 6.45473 40.1513 6.89023L63.4376 20.045C64.1672 20.4604 64.7749 21.0601 65.2 21.784C65.6251 22.508 65.8527 23.3309 65.8599 24.1705V50.5578C65.8456 51.4297 65.5963 52.2816 65.1381 53.0236C64.68 53.7656 64.0301 54.3702 63.257 54.7736L40.0548 67.8629C39.2614 68.3015 38.365 68.5195 37.4588 68.4943C36.5526 68.4691 35.6697 68.2016 34.9019 67.7197L27.94 63.697C27.4303 63.4692 26.9726 63.1397 26.5949 62.7287C26.8907 62.3302 27.42 62.2803 27.8497 62.106C28.8041 61.765 29.7245 61.3356 30.5989 60.8232C30.7091 60.7583 30.8361 60.7277 30.9637 60.7355C31.0913 60.7433 31.2136 60.789 31.3151 60.8668C33.2953 62.0032 35.2599 63.1739 37.2526 64.301C37.676 64.547 38.1057 64.2201 38.4669 64.0208C46.0598 59.7283 53.6538 55.4419 61.2487 51.1618C61.3842 51.0942 61.4962 50.9874 61.5701 50.8552C61.644 50.723 61.6763 50.5716 61.6628 50.4208C61.6691 41.7174 61.6701 33.0129 61.666 24.3074C61.6796 24.1383 61.6401 23.9691 61.5531 23.8235C61.466 23.6778 61.3357 23.5629 61.1803 23.4948C53.4711 19.1524 45.764 14.808 38.059 10.4615C37.9252 10.3696 37.7667 10.3205 37.6044 10.3205C37.4421 10.3205 37.2837 10.3696 37.1498 10.4615C29.4428 14.8038 21.7378 19.1493 14.0348 23.4979C13.8785 23.5642 13.7471 23.6782 13.6593 23.8235C13.5715 23.9689 13.5319 24.1382 13.546 24.3074V50.4208C13.5329 50.5711 13.5661 50.7218 13.6413 50.8527C13.7164 50.9835 13.8299 51.0881 13.9663 51.1525C16.0213 52.3191 18.0793 53.4814 20.1405 54.6397C20.7115 54.9926 21.3505 55.2211 22.0158 55.3102C22.681 55.3992 23.3576 55.3469 24.0013 55.1565C24.56 54.9463 25.0411 54.5703 25.38 54.0789C25.719 53.5875 25.8995 53.0042 25.8975 52.4073C25.9068 43.7516 25.8912 35.0959 25.9037 26.4465C25.9016 26.3546 25.9189 26.2634 25.9544 26.1787C25.99 26.094 26.0429 26.0177 26.1099 25.9548C26.1769 25.892 26.2563 25.8439 26.3431 25.8138C26.4299 25.7837 26.5221 25.7723 26.6136 25.7802C27.6037 25.7739 28.5907 25.7677 29.5808 25.7833C29.677 25.7878 29.7711 25.8125 29.857 25.8559C29.943 25.8992 30.0188 25.9601 30.0797 26.0348C30.1405 26.1094 30.1849 26.196 30.21 26.2889C30.2351 26.3818 30.2403 26.479 30.2253 26.5741C30.2222 35.2827 30.2346 43.9913 30.2191 52.6968C30.2855 53.8803 30.033 55.0598 29.4881 56.1124C28.9432 57.1651 28.1258 58.0521 27.1211 58.6811C25.7794 59.3062 24.3107 59.6105 22.8311 59.5699C21.3515 59.5294 19.9016 59.1451 18.5962 58.4476C16.3326 57.3173 14.1749 55.9879 11.955 54.7736C11.1818 54.3706 10.532 53.766 10.0743 53.0238C9.61664 52.2817 9.36816 51.4296 9.35516 50.5578V24.1705C9.3618 23.314 9.59742 22.4749 10.0376 21.7402C10.4778 21.0055 11.1064 20.4019 11.8585 19.9921C19.5925 15.6269 27.3256 11.2596 35.0575 6.89023H35.0544Z" fill="white"/>
<path d="M41.8014 25.1669C45.2191 24.7254 48.6921 25.2574 51.8209 26.7019C52.9547 27.3782 53.8921 28.3391 54.5404 29.4892C55.1886 30.6393 55.5251 31.9388 55.5166 33.259C55.4729 33.4242 55.371 33.568 55.2297 33.664C55.0884 33.7601 54.9173 33.802 54.7476 33.7821C53.7668 33.7821 52.7892 33.7945 51.8115 33.7759C51.6228 33.7643 51.4452 33.6824 51.3138 33.5464C51.1824 33.4104 51.1067 33.2301 51.1016 33.0411C50.9905 32.4019 50.7416 31.7945 50.3723 31.2612C50.0029 30.7278 49.5219 30.2812 48.9626 29.9524C47.1012 29.2126 45.0909 28.9246 43.0967 29.1118C41.6269 29.066 40.1731 29.4281 38.8965 30.1579C38.4568 30.499 38.1351 30.9692 37.9765 31.5025C37.8179 32.0359 37.8304 32.6055 38.0122 33.1314C38.3267 33.8786 39.1892 34.1184 39.8959 34.3394C43.9622 35.4043 48.2714 35.2984 52.2568 36.6964C53.113 36.9347 53.9033 37.3658 54.5671 37.9568C55.2309 38.5478 55.7506 39.2828 56.0864 40.1057C56.486 41.2727 56.5825 42.5221 56.3668 43.7366C56.1511 44.9511 55.6304 46.0909 54.8535 47.0489C53.4478 48.5093 51.6213 49.4944 49.6289 49.8667C47.0342 50.394 44.3724 50.5075 41.7423 50.203C39.2181 50.058 36.7981 49.1468 34.8053 47.5907C34.0158 46.8654 33.3963 45.9747 32.991 44.9822C32.5858 43.9897 32.4047 42.9199 32.4608 41.8493C32.4804 41.6776 32.5669 41.5205 32.7015 41.4121C32.8361 41.3037 33.008 41.2527 33.18 41.2702C34.167 41.2609 35.1509 41.2577 36.1379 41.2702C36.2292 41.2685 36.3199 41.285 36.4048 41.3186C36.4897 41.3522 36.5671 41.4023 36.6325 41.466C36.6979 41.5297 36.7501 41.6057 36.786 41.6897C36.8219 41.7736 36.8407 41.8639 36.8415 41.9552C36.8901 42.5656 37.0632 43.1595 37.3502 43.7004C37.6373 44.2413 38.0321 44.7176 38.5104 45.0999C40.6207 46.1384 42.9789 46.5675 45.3198 46.3391C47.2796 46.4887 49.2361 46.0099 50.9055 44.9722C51.2901 44.5971 51.5701 44.128 51.7176 43.6113C51.865 43.0947 51.8749 42.5484 51.7461 42.0268C51.5033 41.155 50.5941 40.7502 49.8126 40.4856C45.7961 39.2152 41.4434 39.6761 37.4674 38.2438C36.6335 37.9992 35.8627 37.5766 35.208 37.0052C34.5533 36.4338 34.0303 35.7272 33.6751 34.9341C33.2185 33.7514 33.103 32.4642 33.3419 31.2191C33.5808 29.974 34.1644 28.821 35.0263 27.8912C36.905 26.2323 39.2973 25.2703 41.8014 25.1669Z" fill="white"/>
</svg>
