<svg width="75" height="75" viewBox="0 0 75 75" fill="none" xmlns="http://www.w3.org/2000/svg">
<path d="M37.3626 43.1398C40.5868 43.1398 43.2005 40.5261 43.2005 37.3019C43.2005 34.0777 40.5868 31.464 37.3626 31.464C34.1384 31.464 31.5247 34.0777 31.5247 37.3019C31.5247 40.5261 34.1384 43.1398 37.3626 43.1398Z" fill="white"/>
<path d="M37.3627 50.6871C30.3458 50.8568 23.3465 49.911 16.6264 47.8849C13.5221 46.9008 10.6267 45.3506 8.0867 43.3126C7.11744 42.6164 6.31027 41.7188 5.72057 40.6813C5.13087 39.6437 4.77261 38.4909 4.67035 37.3019C4.67035 33.4419 8.91101 29.6589 16.0146 27.1837C22.9144 24.9904 30.1235 23.9274 37.3627 24.0359C44.5052 23.9361 51.6178 24.9798 58.4305 27.1276C61.4202 28.0807 64.2174 29.556 66.6923 31.485C67.645 32.1488 68.4401 33.0139 69.0212 34.0192C69.6023 35.0244 69.9552 36.1451 70.055 37.3019C70.055 41.3137 65.3146 45.3793 57.6786 47.9059C51.0886 49.866 44.237 50.8039 37.3627 50.6871ZM37.3627 26.8287C30.4368 26.7361 23.5404 27.7467 16.9323 29.8224C10.3938 32.1039 7.46321 35.2236 7.46321 37.2949C7.46321 39.462 10.6133 42.869 17.5301 45.2345C23.959 47.163 30.6528 48.0607 37.3627 47.8942C43.9394 48.0119 50.4954 47.122 56.8029 45.2555C63.9835 42.876 67.2528 39.4643 67.2528 37.3019C67.135 36.5599 66.8645 35.8503 66.4586 35.2181C66.0526 34.5858 65.52 34.0447 64.8943 33.6287C62.6799 31.9174 60.1812 30.6099 57.5128 29.7664C50.9954 27.7202 44.193 26.7285 37.3627 26.8287Z" fill="white"/>
<path d="M24.0989 66.4191C23.0095 66.444 21.933 66.1798 20.9791 65.6531C17.6352 63.7243 16.4769 58.1619 17.8803 50.7711C19.4277 43.6981 22.1089 36.9219 25.8199 30.705C29.301 24.4681 33.7576 18.8282 39.0206 13.9993C41.3398 11.8853 44.0152 10.1989 46.9228 9.01837C47.9744 8.52551 49.1217 8.27002 50.2831 8.27002C51.4445 8.27002 52.5917 8.52551 53.6434 9.01837C57.1204 11.0219 58.2717 17.1588 56.6487 25.0353C55.0536 31.7245 52.4421 38.1296 48.9053 44.0272C45.5467 50.1905 41.2305 55.7813 36.118 60.5905C33.7146 62.7874 30.9254 64.5204 27.8912 65.7022C26.6765 66.153 25.3943 66.3954 24.0989 66.4191ZM28.2391 32.0921C24.6993 38.0452 22.1296 44.5239 20.6265 51.2849C19.3352 58.0919 20.5751 62.1854 22.3779 63.2269C24.246 64.3081 28.7809 63.2829 34.2872 58.4725C39.1678 53.8651 43.2875 48.5135 46.4931 42.6167C49.8813 36.9785 52.3864 30.8548 53.9213 24.4585C55.4485 17.0443 54.1291 12.5048 52.2563 11.4259C51.5544 11.157 50.8043 11.0366 50.0535 11.0724C49.3026 11.1081 48.5674 11.2993 47.8942 11.6338C45.3061 12.7017 42.9267 14.2179 40.8654 16.1126C35.837 20.7381 31.58 26.1373 28.2555 32.1061L28.2391 32.0921Z" fill="white"/>
<path d="M50.6193 66.4494C47.4552 66.4494 43.4364 64.5346 39.2517 60.9361C33.8965 56.0632 29.3646 50.3564 25.8316 44.0365C22.1671 37.9052 19.5072 31.2271 17.9527 24.2553C17.2786 21.188 17.1536 18.0255 17.5837 14.9147C17.6832 13.7606 18.0346 12.6425 18.6132 11.639C19.1918 10.6356 19.9834 9.77129 20.9324 9.10709C24.4048 7.09652 30.2964 9.16314 36.3094 14.5013C41.3081 19.2235 45.5529 24.6843 48.896 30.6934C52.5582 36.6815 55.246 43.2134 56.8589 50.0449C57.562 53.2247 57.6705 56.5072 57.1788 59.7265C57.0618 60.9137 56.6895 62.0616 56.0873 63.0914C55.4851 64.1212 54.6674 65.0086 53.6901 65.6928C52.7517 66.2129 51.6919 66.474 50.6193 66.4494ZM28.2484 42.6307C31.6378 48.6705 35.9668 54.1323 41.0732 58.8111C46.325 63.3296 50.4909 64.3011 52.282 63.2479C54.1501 62.162 55.5278 57.7299 54.1081 50.5586C52.5526 44.0364 49.9746 37.8014 46.4697 32.0851C43.2795 26.3339 39.2278 21.1048 34.4553 16.5796C28.7949 11.5543 24.2039 10.4311 22.3335 11.5147C21.7505 11.9884 21.2721 12.5779 20.9284 13.2459C20.5848 13.9139 20.3834 14.6459 20.3369 15.3957C19.9656 18.1701 20.0866 20.9882 20.6942 23.7206C22.1894 30.3878 24.7404 36.7732 28.2508 42.6354L28.2484 42.6307Z" fill="white"/>
</svg>
