<svg width="49" height="49" viewBox="0 0 49 49" fill="none" xmlns="http://www.w3.org/2000/svg">
<path d="M22.8218 39.9534C23.0091 40.2254 23.2597 40.4478 23.552 40.6015C23.8444 40.7552 24.1697 40.8354 24.5 40.8354C24.8303 40.8354 25.1556 40.7552 25.448 40.6015C25.7403 40.4478 25.991 40.2254 26.1783 39.9534L44.5533 13.4117C44.7659 13.1056 44.8907 12.747 44.9139 12.375C44.9371 12.0029 44.8579 11.6316 44.6849 11.3014C44.5119 10.9712 44.2518 10.6948 43.9327 10.5021C43.6136 10.3093 43.2478 10.2078 42.875 10.2083H6.12501C5.75311 10.2099 5.38866 10.3128 5.07086 10.5059C4.75306 10.6991 4.49393 10.9753 4.32134 11.3047C4.14875 11.6341 4.06922 12.0044 4.09132 12.3756C4.11342 12.7469 4.23631 13.1051 4.44676 13.4117L22.8218 39.9534Z" fill="#A18BD6"/>
</svg>
