<svg width="50" height="50" viewBox="0 0 50 50" fill="none" xmlns="http://www.w3.org/2000/svg">
<path d="M44.1406 7.8125H5.85938C5.64453 7.8125 5.46875 7.98828 5.46875 8.20312V11.3281C5.46875 11.543 5.64453 11.7188 5.85938 11.7188H44.1406C44.3555 11.7188 44.5312 11.543 44.5312 11.3281V8.20312C44.5312 7.98828 44.3555 7.8125 44.1406 7.8125ZM44.1406 38.2812H5.85938C5.64453 38.2812 5.46875 38.457 5.46875 38.6719V41.7969C5.46875 42.0117 5.64453 42.1875 5.85938 42.1875H44.1406C44.3555 42.1875 44.5312 42.0117 44.5312 41.7969V38.6719C44.5312 38.457 44.3555 38.2812 44.1406 38.2812ZM44.1406 23.0469H5.85938C5.64453 23.0469 5.46875 23.2227 5.46875 23.4375V26.5625C5.46875 26.7773 5.64453 26.9531 5.85938 26.9531H44.1406C44.3555 26.9531 44.5312 26.7773 44.5312 26.5625V23.4375C44.5312 23.2227 44.3555 23.0469 44.1406 23.0469Z" fill="#A18BD6"/>
</svg>
