<svg width="64" height="64" viewBox="0 0 64 64" fill="none" xmlns="http://www.w3.org/2000/svg">
<path d="M64 32C64 23.5131 60.6286 15.3737 54.6274 9.37258C48.6263 3.37142 40.4869 0 32 0C23.5131 0 15.3737 3.37142 9.37258 9.37258C3.37142 15.3737 0 23.5131 0 32C0 40.4869 3.37142 48.6263 9.37258 54.6274C15.3737 60.6286 23.5131 64 32 64C40.4869 64 48.6263 60.6286 54.6274 54.6274C60.6286 48.6263 64 40.4869 64 32ZM34 46C34 46.5304 33.7893 47.0391 33.4142 47.4142C33.0391 47.7893 32.5304 48 32 48C31.4696 48 30.9609 47.7893 30.5858 47.4142C30.2107 47.0391 30 46.5304 30 46V22.828L21.416 31.416C21.0405 31.7915 20.5311 32.0025 20 32.0025C19.4689 32.0025 18.9595 31.7915 18.584 31.416C18.2085 31.0405 17.9975 30.5311 17.9975 30C17.9975 29.4689 18.2085 28.9595 18.584 28.584L30.584 16.584C30.7698 16.3977 30.9905 16.25 31.2335 16.1491C31.4764 16.0483 31.7369 15.9964 32 15.9964C32.2631 15.9964 32.5236 16.0483 32.7665 16.1491C33.0095 16.25 33.2302 16.3977 33.416 16.584L45.416 28.584C45.7915 28.9595 46.0025 29.4689 46.0025 30C46.0025 30.5311 45.7915 31.0405 45.416 31.416C45.0405 31.7915 44.5311 32.0025 44 32.0025C43.4689 32.0025 42.9595 31.7915 42.584 31.416L34 22.828V46Z" fill="#A18BD6"/>
</svg>
