<svg width="75" height="75" viewBox="0 0 75 75" fill="none" xmlns="http://www.w3.org/2000/svg">
<path d="M64.326 21.7948C63.9233 21.0614 63.3321 20.4487 62.6136 20.0201L39.7601 6.8186C39.0195 6.4338 38.1972 6.23291 37.3626 6.23291C36.5281 6.23291 35.7058 6.4338 34.9652 6.8186L12.1117 20.0201C11.4115 20.4698 10.8287 21.0802 10.4117 21.8004C9.99478 22.5206 9.75567 23.3299 9.71429 24.1611V50.564C9.73687 51.3983 9.97268 52.213 10.3993 52.9303C10.802 53.6637 11.3932 54.2764 12.1117 54.705L34.9652 67.9065C35.7058 68.2913 36.5281 68.4922 37.3626 68.4922C38.1972 68.4922 39.0195 68.2913 39.7601 67.9065L62.6136 54.705C63.3321 54.2764 63.9233 53.6637 64.326 52.9303C64.7526 52.213 64.9884 51.3983 65.011 50.564V24.1611C64.9884 23.3268 64.7526 22.5121 64.326 21.7948ZM37.3626 55.7948C34.1368 55.7804 30.9711 54.9196 28.1822 53.2984C25.3932 51.6773 23.0785 49.3526 21.4694 46.5566C19.8604 43.7606 19.0133 40.5913 19.0128 37.3654C19.0124 34.1394 19.8585 30.9699 21.4668 28.1735C23.0751 25.377 25.3891 23.0516 28.1776 21.4297C30.9661 19.8078 34.1315 18.9461 37.3574 18.9307C40.5833 18.9154 43.7567 19.7469 46.5605 21.3423C49.3643 22.9376 51.7004 25.2409 53.3352 28.0219L49.8169 30.2325L48.696 30.8552L45.5824 32.7545C44.5883 30.9111 43.0036 29.4552 41.0826 28.6208C39.1616 27.7863 37.016 27.6217 34.9902 28.1533C32.9644 28.6849 31.176 29.8818 29.9123 31.552C28.6486 33.2222 27.9829 35.2686 28.022 37.3626C28.0132 38.9829 28.4435 40.5753 29.2674 41.9706C30.1 43.3432 31.2723 44.478 32.6712 45.2656C34.07 46.0532 35.6483 46.4669 37.2537 46.4669C38.859 46.4669 40.4373 46.0532 41.8362 45.2656C43.2351 44.478 44.4073 43.3432 45.2399 41.9706L53.3352 46.7032C51.6961 49.4793 49.3599 51.7787 46.5582 53.3735C43.7564 54.9682 40.5865 55.8029 37.3626 55.7948ZM55.7949 38.39H53.7399V40.4761H51.7161V38.4212H49.8169V36.3662H51.8718V34.249H53.8956V36.3039H55.9506L55.7949 38.39ZM63.4854 38.39H61.4304V40.4761H59.3755V38.4212H57.3517V36.3662H59.3755V34.249H61.4304V36.3039H63.4854V38.39Z" fill="white"/>
</svg>
