<svg width="75" height="75" viewBox="0 0 75 75" fill="none" xmlns="http://www.w3.org/2000/svg">
<path d="M23.4558 38.1403C23.4216 44.3211 27.9552 48.0047 35.1884 46.3295V29.948C27.8649 27.7186 23.4869 32.2304 23.4558 38.1403ZM35.4095 6.26172H45.3704V53.4132C35.8236 54.9732 26.6754 55.9634 20.1365 52.3079C11.7139 47.5968 11.0351 32.6321 17.7016 25.9655C21.08 22.5871 27.8867 20.2051 35.1884 21.7589V6.92806C35.1697 6.61357 35.1511 6.29908 35.4095 6.26172ZM61.5307 16.6679H51.5699V6.26172H61.5307V16.6679Z" fill="white"/>
<path d="M61.5309 21.9331C61.5216 29.2691 61.5216 34.5376 61.5216 43.4522C61.0981 52.2112 61.1977 59.1829 57.9875 63.374C57.3554 64.2023 56.0133 65.4042 54.8893 66.2511C53.9458 66.961 52.1461 68.4027 51.1279 68.465C50.0972 68.5304 47.4536 67.0358 46.258 66.4722C44.6855 65.7342 43.2345 64.7503 41.6091 64.2614C45.4017 61.9137 48.9949 60.1513 50.4646 55.4059C51.7413 51.2771 51.57 45.2956 51.57 39.4666C51.57 33.7093 51.598 27.0179 51.598 21.9362L61.5309 21.9331Z" fill="white"/>
</svg>
