<svg width="75" height="75" viewBox="0 0 75 75" fill="none" xmlns="http://www.w3.org/2000/svg">
<g clip-path="url(#clip0)">
<path d="M27.562 57.7837C27.562 57.7837 24.7037 59.4486 29.5912 60.0067C35.5132 60.6886 38.5419 60.5929 45.0617 59.3505C45.0617 59.3505 46.7734 60.4341 49.1716 61.3705C34.5418 67.6357 16.0659 60.9945 27.5596 57.7837H27.562ZM25.7709 49.6106C25.7709 49.6106 22.56 51.9808 27.4499 52.4782C33.7898 53.1343 38.7731 53.1974 47.4202 51.5324C47.4202 51.5324 48.6135 52.7374 50.5003 53.4029C32.8161 58.5706 13.112 53.8045 25.7732 49.6106H25.7709ZM40.8397 35.735C44.4382 39.8823 39.8893 43.6162 39.8893 43.6162C39.8893 43.6162 49.0361 38.8828 44.8398 32.9749C40.9144 27.4522 37.8974 24.7177 54.1922 15.265C54.1922 15.265 28.6151 21.6516 40.8374 35.7374L40.8397 35.735ZM60.1795 63.8411C60.1795 63.8411 62.2975 65.5784 57.856 66.9305C49.4144 69.4828 22.7188 70.2488 15.3 67.0262C12.6379 65.8703 17.6352 64.2544 19.2044 63.9251C20.846 63.5609 21.7824 63.6356 21.7824 63.6356C18.8144 61.5433 2.61539 67.7338 13.551 69.5085C43.385 74.3493 67.9253 67.3321 60.1795 63.8411ZM28.935 41.1339C28.935 41.1339 15.3514 44.3565 24.1176 45.524C27.8282 46.0214 35.212 45.914 42.096 45.3302C47.7121 44.8538 53.3585 43.8451 53.3585 43.8451C53.3585 43.8451 51.376 44.6951 49.9398 45.6828C36.146 49.307 9.50179 47.6163 17.1751 43.9081C23.6576 40.7813 28.935 41.1339 28.935 41.1339ZM53.2955 54.7549C67.3065 47.4576 60.824 40.4637 56.3125 41.4142C55.2033 41.6313 54.7059 41.8415 54.7059 41.8415C54.7059 41.8415 55.1076 41.1946 55.8992 40.9168C64.8499 37.7666 71.7339 50.1944 53.0152 55.1216C53.0152 55.1099 53.2371 54.9277 53.2955 54.7573V54.7549ZM44.8422 0C44.8422 0 52.6043 7.75975 37.4724 19.7018C25.3482 29.2853 34.7099 34.7473 37.4724 40.9868C30.3945 34.6001 25.2011 28.9841 28.6805 23.7533C33.7992 16.0543 47.969 12.332 44.8422 0ZM30.3081 74.4941C43.761 75.3441 64.4225 74.0084 64.9246 67.6474C64.9246 67.6474 63.9742 70.0549 53.7929 71.9744C42.3132 74.1391 28.1434 73.8823 19.7391 72.4975C19.7391 72.4975 21.4672 73.9196 30.3058 74.4941H30.3081Z" fill="white"/>
</g>
<defs>
<clipPath id="clip0">
<rect width="74.7253" height="74.7253" fill="white"/>
</clipPath>
</defs>
</svg>
