<svg width="76" height="75" viewBox="0 0 76 75" fill="none" xmlns="http://www.w3.org/2000/svg">
<path d="M55.2989 21.3434V28.2695C55.2707 30.8589 54.2395 33.3366 52.4222 35.1813C50.6049 37.0261 48.143 38.0943 45.5542 38.1613H29.974C27.8966 38.2027 25.9179 39.0549 24.4605 40.5359C23.0031 42.0168 22.1827 44.009 22.1746 46.0868V60.9385C22.1746 65.1651 25.8501 67.6544 29.974 68.8663C35.0463 70.4527 40.482 70.4527 45.5542 68.8663C49.482 67.7291 53.3537 65.4407 53.3537 60.9408V54.9931H37.7735V53.0106H61.1531C65.6857 53.0106 67.3763 49.8488 68.9526 45.1037C70.5537 39.9397 70.5537 34.4119 68.9526 29.2479C67.8317 24.7364 65.6927 21.3411 61.1531 21.3411L55.2989 21.3434ZM46.5373 58.9582C47.1275 58.9494 47.7069 59.1165 48.2017 59.4381C48.6966 59.7598 49.0845 60.2215 49.3161 60.7644C49.5476 61.3073 49.6123 61.9068 49.5019 62.4866C49.3915 63.0664 49.111 63.6002 48.6961 64.02C48.2813 64.4398 47.7508 64.7267 47.1724 64.8439C46.594 64.9612 45.9937 64.9037 45.4481 64.6786C44.9025 64.4535 44.4362 64.0711 44.1087 63.5801C43.7812 63.0891 43.6072 62.5118 43.609 61.9216C43.606 61.5344 43.6793 61.1504 43.8249 60.7916C43.9705 60.4329 44.1855 60.1064 44.4576 59.8309C44.7296 59.5554 45.0534 59.3363 45.4102 59.1861C45.7671 59.036 46.1502 58.9577 46.5373 58.9559V58.9582Z" fill="white"/>
<path d="M37.4279 4.67031C34.9298 4.67339 32.4363 4.88664 29.974 5.30781C23.3725 6.47306 22.1746 8.9133 22.1746 13.4155V19.3585H37.7735V21.3411H16.3203C14.0242 21.2986 11.7869 22.0691 10.0038 23.5164C8.22071 24.9636 7.00648 26.9945 6.57566 29.2503C5.11142 34.4333 5.11142 39.9206 6.57566 45.1037C7.68486 49.7203 10.3329 53.0106 14.8655 53.0106H20.2294V45.886C20.2863 43.3244 21.333 40.8844 23.1497 39.0777C24.9664 37.271 27.4122 36.2379 29.974 36.195H45.5542C46.5869 36.1874 47.608 35.9763 48.559 35.5737C49.5101 35.1712 50.3725 34.5851 51.0968 33.849C51.8212 33.1129 52.3934 32.2413 52.7806 31.2839C53.1679 30.3265 53.3626 29.3022 53.3537 28.2695V13.4155C53.2225 11.36 52.367 9.41744 50.939 7.93305C49.5111 6.44866 47.6031 5.5185 45.5542 5.30781C42.868 4.8684 40.1497 4.65515 37.4279 4.67031ZM28.9932 9.45273C29.5826 9.44393 30.1612 9.61054 30.6557 9.93137C31.1501 10.2522 31.538 10.7128 31.7701 11.2546C32.0022 11.7964 32.068 12.395 31.9591 12.9742C31.8502 13.5535 31.5716 14.0873 31.1586 14.5079C30.7456 14.9284 30.2169 15.2167 29.6398 15.3361C29.0626 15.4555 28.4629 15.4006 27.917 15.1784C27.371 14.9562 26.9035 14.5767 26.5737 14.0882C26.2439 13.5997 26.0669 13.0241 26.0649 12.4347C26.0593 11.6514 26.3643 10.8978 26.9132 10.3389C27.462 9.78001 28.21 9.46136 28.9932 9.45273Z" fill="white"/>
</svg>
