<svg width="50" height="50" viewBox="0 0 50 50" fill="none" xmlns="http://www.w3.org/2000/svg">
<path d="M9.67498 10H42.8C45.925 10 47.5 11.475 47.5 14.475V35.525C47.5 38.5 45.925 40 42.8 40H9.67498C6.54998 40 4.97498 38.5 4.97498 35.525V14.475C4.97498 11.475 6.54998 10 9.67498 10ZM26.225 31.5L43.075 17.675C43.675 17.175 44.15 16.025 43.4 15C42.675 13.975 41.35 13.95 40.475 14.575L26.225 24.225L12 14.575C11.125 13.95 9.79998 13.975 9.07498 15C8.32498 16.025 8.79998 17.175 9.39998 17.675L26.225 31.5Z" fill="#A18BD6"/>
</svg>
