<svg width="45" height="45" viewBox="0 0 45 45" fill="none" xmlns="http://www.w3.org/2000/svg">
<path d="M22.5 2.8125C11.6279 2.8125 2.8125 11.6279 2.8125 22.5C2.8125 33.3721 11.6279 42.1875 22.5 42.1875C33.3721 42.1875 42.1875 33.3721 42.1875 22.5C42.1875 11.6279 33.3721 2.8125 22.5 2.8125ZM33.75 13.9614L31.957 15.6797C31.7988 15.7983 31.7241 15.9917 31.7549 16.1807V28.8237C31.7241 29.0171 31.7988 29.2104 31.957 29.3247L33.7148 31.043V31.4253H24.8906V31.0605L26.7056 29.2983C26.8857 29.1182 26.8857 29.0654 26.8857 28.7974V18.5669L21.832 31.3813H21.1509L15.271 18.5669V27.1582C15.2183 27.5186 15.3457 27.8833 15.6006 28.1426L17.9648 31.0034V31.3857H11.25V31.0034L13.6143 28.1426C13.7388 28.0139 13.8315 27.8579 13.8849 27.6869C13.9384 27.516 13.951 27.3349 13.9219 27.1582V17.2266C13.9526 16.9497 13.8472 16.6816 13.6362 16.4927L11.5356 13.9614V13.5791H18.0615L23.0977 24.6313L27.5317 13.5879H33.75V13.9614Z" fill="#D0C5EB"/>
</svg>
